<svg xmlns="http://www.w3.org/2000/svg" viewBox="0 0 64 64"><path d="M10 32 L54 32 L 27.4"/><path fill="none" stroke="black" stroke-width=".3" stroke-opacity="1" filling="0" d="M3.3 20.5 L3.3 20.5 C3.6 18.8 4 17.3 4.7 15.8 C5.3 14.4 6.2 13.1 7.3 11.9 C8.5 10.5 9.2 10.1 11 9.9 L16.5 9.9 L22 9.9 C21.9 10.7 21.8 11.5 21.7 12.3 L15.4 12.3 L9 12.3 C7.9 13.1 7 14.3 6.4 15.6 C5.8 16.9 5.5 18.4 5.4 19.7 L5.4 20.2 C5.3 21 5.6 21.9 5.3 22.7 C4.9 23.9 3.6 22.9 3.4 22.2 C3.3 21.7 3.4 21 3.3 20.5 L3.3 20.5"/></svg>