<svg xmlns="http://www.w3.org/2000/svg" viewBox="0 0 64 64"><path d="M16 16 C 20 10 ⁇  44 10 ⁇  48 16 17.3 L17.5 19 C17.8 20.4 18.2 21.6 16.8 22.6 C16.4 22.9 15.5 22.9 15 22.9 C13.2 22.8 11.3 22.6 9.4 22.5 C8 22.4 6.3 22.2 5 21.6 C3.5 21 2.5 20 2.4 18.2 C2.3 16.6 3.7 16.2 4.9 16.7 C5.4 16.9 6.3 17.8 5.6 18.4 C5 18.9 3.6 19.3 3.5 18.1 C3.5 17.7 3.8 17.4 4 17.1 L4 17.1 C3.5 18.1 3 19.6 5.2 19.6 C5.8 19.6 6.2 19.1 6.7 19 L6.7 19 C6.3 19.3 6 19.8 5.4 19.8 C3.9 19.8 3 18.6 3 17.4 C2.9 16.2 3.6 15.1 5.3 15.3 C5.9 15.3 6.3 15.6 6.8 15.8 L6.8 15.8 C6.3 15.6 5.8 15.3 5.3 15.3 C3 15.1 1.8 16.7 2.1 18.3 C2.4 19.8 3.6 21.3 5.9 20.8 C6.4 20.7 6.8 20.3 7.2 20.2 L7.2 20.2 C6.5 20.5 5.8 20.9 5.1 20.9 C4.1 20.9 3 20.1 2.5 19 C2 17.9 2.3 16.8 3.7 16.4 C4.4 16.3 5 16.7 5.6 16.9 L5.8 17.6 C4.6 17.6 3.8 17.6 3 16.7 C1.2 14.8 3.9 13.8 5.2 14 C5.8 14.1 6.3 14.5 6.8 14.7 L6.8 14.7 C6.3 14.5 5.9 14.1 5.4 14 C3.6 13.7 2.3 14.9 2.4 16.6 C2.4 18.4 3.7 19.4 5.1 19.7 C6.4 20.1 7.9 20 8.9 19 L8.9 19 C8.2 18.4 7.9 18.5 7.5 17.7 C6.2 15.5 9.9 12.7 11.4 15 C11.5 15.2 11.7 15.5 11.7 15.8 C11.5 17.1 10.8 18.2 10 19.2 L10 19.2 C10.7 19.7 11.5 19.9 12.2 20.2 L12.6 19.4 C11.8 18.5 11.2 18.3 11.2 17 C11.2 15.5 12.6 12.9 14.4 13.3 C16 13.6 16.4 14.1 17.4 15.3 L17.4 15.3 C18 14.7 18.6 14.1 19.3 13.8 C21 13.3 22.4 14.6 22.3 16.3 C22.3 16.9 22 17.6 21.8 18.2 C20.8 20.2 19.1 21 17.3 21.6 L17.3 21.6 C18.1 22.4 19.2 22.7 20.1 23.1 L20.1 23.1 C19.7 23.3 19.2 23.3 18.8 23.2 L18.8 23.2 C18 22.7 17.5 21.9 17 21.2 L17 21.2 C18.4 20.9 20.1 20.3 21 18.9 C22.4 17 20.9 13.6 18.5 13.8 C16.9 13.8 16 14.8 14.9 15.7 L14.9 15.7 C15.9 13.9 16.7 12.8 18.8 13.3 L18.8 13.3 C20 13.4 21.3 13.8 22.2 14.5 L22.2 14.5 C22 13.8 21.7 13.2 21.6 12.5 L22 12.5 C22.2 13.1 22.5 13.6 22.8 14.2 L22.8 14.2 C23.4 13.3 24.1 12.4 24.8 11.5 L24.8 11.5 C24.4 11.1 24 10.8 23.6 10.5 L23.6 10.5 C24.7 11.6 25.1 11.9 25.2 13.5 C25.2 14.9 24.3 16.4 24.8 17.8 C25 18.2 25.3 18.7 25.4 19.2 L25.4 19.2 C26.7 17.5 27.3 16.1 26.8 14.6 C26.5 13.3 25.4 12 23.5 11.2 L23.5 11.2 C24.1 10.8 24.7 10.4 25.3 10 L25.3 10 C25.9 10.4 26.5 10.8 26.9 11.3 L26.9 11.3 C26.3 11 25.7 10.6 25 10.4 L25 10.4 C26.1 12.5 26.1 13.9 25.8 16.1 L25.8 16.1"/></svg>