<svg xmlns="http://www.w3.org/2000/svg" viewBox="0 0 24 24" height="200px" width="200px"><path fill="none" stroke="black" stroke-width=".3" stroke-opacity="1" filling="0" d="M13.3 6.9 L13.3 13.9 L16 13.9"/><path fill="none" stroke="black" stroke-width=".3" stroke-opacity="1" filling="0" d="M19.8 6.9 L19.8 6.9 C20.3 7.1 20.8 7.6 21 8.1 L21 13 L21 17.8 C20.6 18.2 20.3 18.7 19.8 18.9 C19 19.4 16.8 19.6 16 18.9 C15 18.1 15 16.6 15.7 15.8 C16.2 15.3 18.4 15 18.9 14.8 L19.2 14.6 C19.3 14.6 19.5 14.5 19.7 14.4 L19.4 14.3 C19.1 14 18.6 13.7 18.5 13.3 C18.3 12.3 19.9 11.9 19.8 11 C19.7 9.9 15.7 8.9 18.9 7.4 C19.2 7.2 19.5 7.1 19.8 6.9 L19.8 6.9"/><path fill="none" stroke="black" stroke-width=".3" stroke-opacity="1" filling="0" d="M19.8 10.1 L19.8 12.1"/><path fill="none" stroke="black" stroke-width=".3" stroke-opacity="1" filling="0" d="M9 11.7 L13.3 11.7 L13.3 14.2 L9 14.2 C8.6 13.8 8.2 13.4 7.9 13 L7.9 12.4 C8.2 12.1 8.6 11.9 9 11.7 L9 11.7"/><path fill="none" stroke="black" stroke-width=".3" stroke-opacity="1" filling="0" d="M18.3 11.7 L18.3 11.7 C19.4 13.3 19.5 13.9 17.7 15 L19.8 15 C20.2 14.8 20.4 14.6 20.8 14.4 L20.8 15.4 C20.4 15.6 20.2 15.8 19.8 16 L17.7 16 C18.2 15.2 18.9 14.5 19.8 14.1 L18.1 14.1 C17.9 13.8 17.5 13.6 17.5 13.3 C17.6 12.9 18.1 12 18.3 11.7 L18.3 11.7"/><path fill="none" stroke="black" stroke-width=".3" stroke-opacity="1" filling="0" d="M13.3 12.3 L14.2 12.3"/></svg>