<svg xmlns="http://www.w3.org/2000/svg" viewBox="0 0 24 24" height="200px" width="200px"><path fill="none" stroke="black" stroke-width=".3" stroke-opacity="1" filling="0" d="M11.4 8.4 L11.4 8.4 C12.3 8.9 13.4 11 11.4 11 C9.4 11 10.5 8.9 11.4 8.4 L11.4 8.4"/><path fill="none" stroke="black" stroke-width=".3" stroke-opacity="1" filling="0" d="M14.7 8.9 L14.7 8.9 C15.5 9.3 16.6 11.3 14.7 11.3 C12.6 11.3 13.8 9.3 14.7 8.9 L14.7 8.9"/><path fill="none" stroke="black" stroke-width=".3" stroke-opacity="1" filling="0" d="M8.3 9.7 L8.3 9.7 C9.1 10.1 10.2 12 8.3 12 C6.4 12 7.5 10.1 8.3 9.7 L8.3 9.7"/><path fill="none" stroke="black" stroke-width=".3" stroke-opacity="1" filling="0" d="M11.4 9.7 L11.4 9.7 C12.3 10.2 13.4 12 11.4 12 C9.4 12 10.5 10.1 11.4 9.7 L11.4 9.7"/><path fill="none" stroke="black" stroke-width=".3" stroke-opacity="1" filling="0" d="M14.7 10.2 L14.7 10.2 C15.5 10.6 16.6 12.5 14.7 12.5 C12.6 12.5 13.8 10.6 14.7 10.2 L14.7 10.2"/><path fill="none" stroke="black" stroke-width=".3" stroke-opacity="1" filling="0" d="M8.3 11 L8.3 11 C9.2 11.4 10.3 13.4 8.3 13.4 C6.2 13.4 7.3 11.4 8.3 11 L8.3 11"/><path fill="none" stroke="black" stroke-width=".3" stroke-opacity="1" filling="0" d="M11.4 12 L11.4 12 C12.3 12.4 13.4 14.4 11.4 14.4 C9.4 14.4 10.5 12.4 11.4 12 L11.4 12"/><path fill="none" stroke="black" stroke-width=".3" stroke-opacity="1" filling="0" d="M8.3 13.4 L8.3 13.4 C9.1 13.7 10.2 15.5 8.3 15.5 C6.4 15.5 7.5 13.7 8.3 13.4 L8.3 13.4"/><path fill="none" stroke="black" stroke-width=".3" stroke-opacity="1" filling="0" d="M11.4 14.4 L11.4 14.4 C12.3 14.8 13.4 16.6 11.4 16.6 C9.4 16.6 10.5 14.8 11.4 14.4 L11.4 14.4"/><path fill="none" stroke="black" stroke-width=".3" stroke-opacity="1" filling="0" d="M8.3 15.5 L8.3 15.5 C9.1 15.8 10.2 17.7 8.3 17.7 C6.4 17.7 7.5 15.8 8.3 15.5 L8.3 15.5"/></svg>