<svg xmlns="http://www.w3.org/2000/svg" viewBox="0 0 24 24" height="200px" width="200px"><path fill="none" stroke="black" stroke-width=".3" stroke-opacity="1" filling="0" d="M14.5 13.1 L14.5 13.1 C14 14.5 13.5 15.2 12.2 15.9 L12.2 15.9 C11 14.7 10.6 14.5 10.5 12.8 C10.4 11.2 12 8.1 13.9 10.4 C14.3 10.9 14.3 12.4 14.5 13.1 L14.5 13.1"/><path fill="none" stroke="black" stroke-width=".3" stroke-opacity="1" filling="0" d="M16.3 13.1 L16.3 13.1 C15.9 15 14.7 16.1 13.4 16.8 C12 17.5 10.4 17.8 8.8 18.2 L8.8 18.2 C9.2 20 9.9 21.1 11 21.7 C12.1 22.3 13.5 22.3 15.2 21.7 L15.2 21.7 C15.3 21.9 15.3 22.1 15.3 22.3 L15.3 22.3 C13.5 23.2 11.6 23.2 10.1 22.5 C8.6 21.8 7.5 20.3 7.3 18.1 C7.2 16.4 8.5 14.7 9.5 13.4 L9.5 13.4 C9.4 11.9 9.7 10.6 10.5 9.7 C11.2 8.8 12.4 8.4 14.1 8.8 L14.1 8.8 C15.9 10.1 16.1 10.9 16.3 13.1 L16.3 13.1"/></svg>