<svg xmlns="http://www.w3.org/2000/svg" viewBox="0 0 24 24" height="200px" width="200px"><path fill="none" stroke="black" stroke-width=".3" stroke-opacity="1" filling="0" d="M12 7.3 L12 7.3 C14.1 7.5 16.1 7.9 17.7 9.4 C19.3 11 20 13.1 20 15.2 C20 17.3 19.3 19.5 17.7 21.1 C16.1 22.6 14 23.1 12 23.1 C10 23.1 7.9 22.6 6.3 21.1 C4.7 19.5 4 17.3 4 15.2 C4 13.1 4.7 11 6.3 9.4 C8 7.9 9.9 7.5 12 7.3 L12 7.3"/><path fill="none" stroke="black" stroke-width=".3" stroke-opacity="1" filling="0" d="M12 22.6 L12 22.6 C10.6 22.3 9.9 22.4 8.9 21.2 C7.5 19.7 6.9 17.3 7 15 C7.1 12.7 7.9 10.4 9.3 9 C11 7.5 12.8 7.9 14.1 9.1 C15.4 10.3 16.3 12.3 16.5 13.8 C16.7 15.5 16.7 17.6 16.1 19.2 C15.5 20.8 14.3 22.1 12 22.6 L12 22.6"/></svg>