<svg xmlns="http://www.w3.org/2000/svg" viewBox="0 0 24 24" height="200px" width="200px"><path fill="none" stroke="black" stroke-width=".3" stroke-opacity="1" filling="0" d="M10.6 4.7 L11.7 4.7 C11.9 5.1 12.3 5.5 12.3 6 C12.3 6.3 11.9 6.4 11.7 6.6 L10.6 6.6 C10.4 6.4 10 6.3 10 6 C10 5.5 10.4 5.1 10.6 4.7 L10.6 4.7"/><path fill="none" stroke="black" stroke-width=".3" stroke-opacity="1" filling="0" d="M11.7 5.2 L10.1 5.6 L11.7 5.2"/><path fill="none" stroke="black" stroke-width=".3" stroke-opacity="1" filling="0" d="M11.2 5.3 L10.8 6.3 L11.2 6.5 L12 6.3 L12.3 6.3 L12.8 6.9 L12.3 7.4 L8.8 7.4 L8 6.9 L8.3 6.3 L8.8 6.3 L9.5 5.4 L11.2 5.3"/><path fill="none" stroke="black" stroke-width=".3" stroke-opacity="1" filling="0" d="M10.8 6.3 L10.1 10.1 L9.5 13.9 L8.8 14.3"/><path fill="none" stroke="black" stroke-width=".3" stroke-opacity="1" filling="0" d="M10.1 7.4 L11.1 7.4 L11.1 8.9 L10.1 8.9"/><path fill="none" stroke="black" stroke-width=".3" stroke-opacity="1" filling="0" d="M10.1 9.9 L11.1 9.9 L11.1 12.8 L10.1 12.8"/><path fill="none" stroke="black" stroke-width=".3" stroke-opacity="1" filling="0" d="M10.1 12.6 L11.1 12.6 L11.1 14.3 L10.1 14.3"/></svg>