<svg xmlns="http://www.w3.org/2000/svg" viewBox="0 0 24 24" height="200px" width="200px"><path fill="none" stroke="black" stroke-width=".3" stroke-opacity="1" filling="0" d="M9.6 22.8 L9.6 22.5 L10 22.5 C10.4 22.4 10.8 22.4 11 22.1 C11.3 21.7 11.2 21.1 11.3 20.6 L11.3 15.1 L11.3 9.6 C11.2 9.1 11.3 8.5 11 8.1 C10.8 7.8 10.4 7.8 10 7.7 L9.6 7.7 L9.6 7.4 L14.4 7.4 L14.4 7.7 L14 7.7 C13.7 7.8 13.3 7.8 13.1 8.1 C12.8 8.5 12.9 9.1 12.8 9.6 L12.8 15.1 L12.8 20.6 C12.9 21.1 12.8 21.7 13.1 22.1 C13.3 22.4 13.7 22.4 14 22.5 L14.4 22.5 L14.4 22.8 L9.6 22.8"/></svg>