<svg xmlns="http://www.w3.org/2000/svg" viewBox="0 0 24 24" height="200px" width="200px"><path fill="none" stroke="black" stroke-width=".3" stroke-opacity="1" filling="0" d="M8.2 22 L8.2 22 C7.4 23.8 7.2 20.5 7.2 20.5 C7.2 18.8 7.3 17.2 7.4 15.5 C7.6 13.9 7.8 12.2 8 10.6 L8 10.6 C7.9 10.5 7.9 10.4 8 10.4 L8.1 10.3 C8.2 10.1 8.5 9.8 8.4 10.3 L8.4 10.3 C9.8 10 11.1 10.2 12.5 10.3 C13.4 10.4 15.3 10.1 16.1 10.5 C16.8 10.8 15.6 12 15 12.5 C13.6 13.7 12.3 14.9 10.9 16 L10.9 16 C11.6 17.7 13.6 19.3 14.9 20.5 C15.2 20.9 16.9 22 16.8 22.6 C16.7 24 15.1 22 15.1 22 C13.5 20.5 11 18.7 10.1 16.7 C9.5 15.3 11.1 14.6 12 13.9 C12.9 13 13.8 12.2 14.7 11.3 L14.7 11.3 C12.6 11 10.5 10.8 8.4 10.6 L8.4 10.6 C8.3 12.5 8.3 14.4 8.2 16.3 C8.2 18.2 8.2 20.1 8.2 22 L8.2 22"/></svg>