<svg xmlns="http://www.w3.org/2000/svg" viewBox="0 0 24 24" height="200px" width="200px"><path fill="none" stroke="black" stroke-width=".3" stroke-opacity="1" filling="0" d="M13.3 5.1 L13.3 5.1 C13.9 5.2 14.5 5.6 15 6 L15 6 C16.4 5 19 4.8 18.8 7.2 C18.7 9.4 16.6 10.7 15 11.8 L15 11.8 C14.5 11.4 13.1 10.4 12.1 9.3 C11.1 8.2 10.5 6.9 11.6 6 C12.1 5.6 12.7 5.4 13.3 5.1 L13.3 5.1"/><path fill="none" stroke="black" stroke-width=".3" stroke-opacity="1" filling="0" d="M16.8 5.2 L16.8 5.2 C17.3 5.6 18 5.7 18.3 6.2 C19.7 8.4 16.4 10.5 15 11.6 L15 11.6 C13.8 10.7 11.2 9 11.4 7.2 C11.7 4.8 13.5 5.1 14.9 6.1 L15 6.3 L15.2 6.1 C15.7 5.8 16.3 5.5 16.8 5.2 L16.8 5.2"/><path fill="none" stroke="black" stroke-width=".3" stroke-opacity="1" filling="0" d="M16.8 5.5 L16.8 5.5 C17.3 5.8 17.9 5.8 18.2 6.3 C19.4 8.2 16.2 10.4 15 11.3 L15 11.3 C13.9 10.5 12 9.3 11.7 7.8 C11.4 5.3 13.2 5.5 14.7 6.3 L15 6.7 L15.4 6.3 C15.9 6 16.3 5.8 16.8 5.5 L16.8 5.5"/><path fill="none" stroke="black" stroke-width=".3" stroke-opacity="1" filling="0" d="M2.7 9.3 L8.1 9.3 L13.5 9.3 L18.8 9.3 L18.8 14 L18.8 18.7 L13.5 18.7 L8.1 18.7 L2.7 18.7 L2.7 14 L2.7 9.3"/><path fill="none" stroke="black" stroke-width=".3" stroke-opacity="1" filling="0" d="M2.9 9.5 L8.1 9.5 L13.4 9.5 L18.7 9.5 L18.7 13.9 L18.7 18.4 L13.4 18.4 L8.1 18.4 L2.9 18.4"/><path fill="none" stroke="black" stroke-width=".3" stroke-opacity="1" filling="0" d="M18.4 9.7 L18.4 14 L18.4 18.2 L13.3 18.2 L8.2 18.2 L3.1 18.2 L3.1 14 L3.1 9.7 L8.2 9.7 L13.3 9.7 L18.4 9.7"/><path fill="none" stroke="black" stroke-width=".3" stroke-opacity="1" filling="0" d="M10.7 11 L10.7 11 C12 11.3 12.6 11.3 13.4 12.5 C14.5 14.5 13 16.9 10.7 16.9 C8.5 16.9 7.1 14.4 8.2 12.5 C8.9 11.3 9.6 11.4 10.7 11 L10.7 11"/><path fill="none" stroke="black" stroke-width=".3" stroke-opacity="1" filling="0" d="M5.2 12.7 L5.2 12.7 C5.6 12.9 6.2 13 6.4 13.4 C7.6 15.7 2.9 15.7 4.1 13.4 C4.3 13 4.9 12.9 5.2 12.7 L5.2 12.7"/><path fill="none" stroke="black" stroke-width=".3" stroke-opacity="1" filling="0" d="M16.3 12.7 L16.3 12.7 C16.7 12.9 17.3 13 17.5 13.4 C18.6 15.6 13.9 15.7 15.1 13.4 C15.3 13 15.9 12.9 16.3 12.7 L16.3 12.7"/></svg>