<svg xmlns="http://www.w3.org/2000/svg" viewBox="0 0 24 24" height="200px" width="200px"><path fill="none" stroke="black" stroke-width=".3" stroke-opacity="1" filling="0" d="M12.5 7.4 L12.5 7.4 C12.8 7.6 13.1 7.8 13.4 8 L13.4 8 C13.8 7.9 14.2 7.5 14.6 7.7 C15 7.9 15.1 8.5 15.3 8.9 L15.3 8.9 C15.8 8.8 16.4 8.7 16.9 8.9 C17.3 9.1 17.5 9.7 17.8 10.1 L17.8 10.1 C18.3 10 18.8 9.6 19.3 9.7 C19.7 9.9 19.8 10.5 20 10.9 L20 10.9 C20.5 10.8 20.9 10.4 21.4 10.6 C21.7 10.8 21.8 11.3 22 11.7 L22 11.7 C22.4 11.6 22.8 11.8 23 12.2 L23 12.2 C23.5 12.2 24 11.9 24.4 12.2 C24.7 12.5 24.5 13.1 24.6 13.5 L24.6 13.5 C25.1 13.5 25.7 13.3 26.1 13.5 C26.3 13.8 26.3 14.4 26.4 14.8 L26.4 14.8 C27 14.8 27.4 14.5 27.9 14.8 C28.3 15.1 28.2 15.7 28.2 16.2 L 18.8"/>< 16.2 C18.6 16.2 18.2 16 17.9 16.2 C17.6 16.5 17.7 17 17.7 17.4 L17.7 17.4 C18.1 17.3 18.5 17.1 18.9 17.1 C19.2 17.1 19.4 17.5 19.6 17.8 C19.8 18.2 19.8 18.7 19.8 19.2 C19.8 19.4 19.5 19.7 19.3 19.8 C18.9 19.9 18.4 19.7 17.9 19.8 L17.9 19.8 C17.5 20.2 17.3 20.9 16.8 21.1 C16.4 21.2 16.1 20.7 15.7 20.6 L15.7 20.6 C15.2 20.7 14.7 20.8 14.2 20.8 L14.2 20.8 C13.8 20.8 13.4 20.8 13 20.8 L13 20.8 C12.5 20.8 12 20.8 11.5 20.8 L11.5 20.8 C11 20.8 10.6 20.8 10.1 20.8 L10.1 20.8 C9.7 20.8 9.2 20.8 8.8 20.8 L8.8 20.8 C8.3 20.8 7.8 20.7 7.4 20.6 L7.4 20.6 C7 20.8 6.5 20.9 6.1 20.8 L6.1 20.8 C5.7 20.8 5.2 20.7 4.8 20.6 L4.8 20.6 C4.4 20.6 4 20.7 3.6 20.7 L3.6 20.7 C3.3 20.7 2.9 20.7 2.6 20.6 C2.3 20.4 2.3 19.9 2.2 19.5 L2.2 19.5 C2.2 19.1 2.1 18.7 2.1 18.3 L2.1 18.3 C2.1 17.9 2 17.5 2 17.1 L2 17.1 C2 16.7 2 16.3 2 15.9 L2 15.9 C2 15.6 2 15.3 2 15 L2 15 C2 14.7 2 14.4 2 14 L2 14 C2 13.7 2 13.3 2 12.9 L2 12.9 C2.3 12.4 2.8 12 3.3 11.7 L3.3 11.7 C3.7 11.6 4.1 11.6 4.5 11.6 L4.5 11.6 C5.1 11.4 5.7 11.3 6.3 11.2 L6.3 11.2 C6.8 11.2 7.3 11.1 7.9 11.1 L7.9 11.1 C8.4 11.1 8.9 11.2 9.4 11.2 L9.4 11.2 C10 11.2 10.7 11.4 11.3 11.6 L11.3 11.6 C11.8 11.5 12.3 11.4 12.8 11.3 L12.8 11.3 C13.3 11.4 13.8 11.5 14.3 11.5 L14.3 11.5 C14.7 11.5 15.2 11.4 15.7 11.4 L15.7 11.4 C16.1 11.4 16.6 11.3 17 11.2 L17 11.2 C17.5 11.1 18 11 18.5 10.9 L18.5 10.9 C18.9 10.8 19.3 10.7 19.7 10.6 L19.7 10.6 C20.1 10.7 20.5 11 20.9 11 C21.1 11 21.3 10.7 21.5 10.6 L21.5 10.6"/></svg>