<svg xmlns="http://www.w3.org/2000/svg" viewBox="0 0 24 24" height="200px" width="200px"><path fill="none" stroke="black" stroke-width=".3" stroke-opacity="1" filling="0" d="M10 7.9 L10 7.9 C10.7 8.2 11.4 9 11.7 9.7 L11.7 14.3 L11.7 18.9 C10.5 20.1 10 20.1 8.6 18.9 L8.6 14.3 L8.6 9.7 C8.9 9 9.4 8.2 10 7.9 L10 7.9"/><path fill="none" stroke="black" stroke-width=".3" stroke-opacity="1" filling="0" d="M10 8.4 L10 8.4 C10.4 8.9 10.8 9.4 11.2 9.9 L11.2 14.3 L11.2 18.8 C10.8 18.8 10.5 18.8 10.1 18.8 L10.1 14.3 L10.1 9.9 C9.7 9.6 9.4 9.1 9 9.1 C8.6 9.1 8.4 9.6 8 9.9 L8 14.3 L8 18.8 C7.6 18.8 7.3 18.8 6.9 18.8 L6.9 14.3 L6.9 9.9 C7.4 9.4 7.9 8.9 8.4 8.4 L10 8.4"/><path fill="none" stroke="black" stroke-width=".3" stroke-opacity="1" filling="0" d="M10 8.9 L10 8.9 C10.3 9.3 10.5 9.6 10.8 9.9 L10.8 14.3 L10.8 18.7 C10.6 18.7 10.4 18.7 10.2 18.7 L10.2 14.3 L10.2 9.9 C9.9 9.7 9.6 9.4 9.4 9.1 L9.4 9.1 C9.6 9 9.8 8.9 10 8.9 L10 8.9"/><path fill="none" stroke="black" stroke-width=".3" stroke-opacity="1" filling="0" d="M7.7 11.2 L7.7 11.2 C8 11.6 8.5 11.9 8.7 12.4 C8.9 12.9 8.7 13.5 8.7 14 L8.7 14 C8.2 13.8 7.6 13.6 7.2 13.3 C6.8 13 6.6 12.5 6.3 12 C6.3 11.8 6.7 11.6 6.9 11.7 C7.2 11.8 7.4 12.1 7.6 12.3 L7.6 12.3 C7.4 12 7.3 11.9 7 11.7 L7 11.7 C7.2 11.6 7.5 11.4 7.7 11.2 L7.7 11.2"/><path fill="none" stroke="black" stroke-width=".3" stroke-opacity="1" filling="0" d="M16 11.2 L16 11.2 C16.3 11.4 16.5 11.6 16.7 11.7 L16.7 11.7 C16.5 12 16.4 12.2 16.1 12.4 L16.1 12.4 C15.9 12.2 15.7 11.9 15.5 11.7 L15.5 11.7 C15.7 11.6 15.8 11.4 16 11.2 L16 11.2"/><path fill="none" stroke="black" stroke-width=".3" stroke-opacity="1" filling="0" d="M7.7 11.7 L7.7 11.7 C8.1 12.1 9.8 13.7 7.7 13.6 C7.4 13.5 7.2 13 6.9 12.8 L6.9 12.8 C7.2 12.4 7.4 12.2 7.7 11.7 L7.7 11.7"/><path fill="none" stroke="black" stroke-width=".3" stroke-opacity="1" filling="0" d="M16 11.7 L16 11.7 C16.3 12.2 16.5 12.4 16.7 12.8 L16.7 12.8 C16.4 13 16.3 13.5 16 13.6 C13.9 13.7 15.6 12.1 16 11.7 L16 11.7"/><path fill="none" stroke="black" stroke-width=".3" stroke-opacity="1" filling="0" d="M12 12.8 L12 12.8 C12 14.5 12 14.5 12 12.8 L12 12.8"/><path fill="none" stroke="black" stroke-width=".3" stroke-opacity="1" filling="0" d="M12 14.3 L12 14.3 C12 15.9 12 15.9 12 14.3 L12 14.3"/></svg>