<svg xmlns="http://www.w3.org/2000/svg" viewBox="0 0 24 24" height="200px" width="200px"><path fill="none" stroke="black" stroke-width=".3" stroke-opacity="1" filling="0" d="M11.7 6.4 L11.7 6.4 C13.1 6.7 14.5 7 15.6 7.9 C16.7 8.7 17.3 9.9 17.4 11.3 C17.5 12.7 17.2 14 16.5 15 C15.6 16.2 14.8 16.5 13.4 17.1 L13.4 18.6 C14.2 19.7 15 19.8 15.8 18.6 L16 18.6 C16.7 19.3 18.1 19.5 18.2 20.8 C18.4 22.3 17 22.7 16 22.3 C14.3 21.8 12.7 20.4 11.7 19.2 L11.7 19.2 C11.6 19.6 11.4 19.9 11.2 20.3 L10.7 20.3 C10.6 19.9 10.4 19.5 10.2 19.1 L10.2 19.1 C10.1 19.5 9.9 19.8 9.8 20.2 L9.4 20.3 C10.9 18.4 10.5 16.3 10.1 14 C9.7 11.8 9.3 9.6 11.7 8.2 L11.7 8.2 C13.4 9.9 13.2 11.4 12.7 13.7 L12.7 13.7 C12.6 13.3 12.6 12.6 12.2 12.4 C11.8 12.2 11.4 12.3 11 12.2 L11 12.2 C11.5 9.9 11.7 8.8 10.3 6.9 L10.3 6.9 C10.6 6.8 11.1 6.6 11.4 6.4 L11.7 6.4"/><path fill="none" stroke="black" stroke-width=".3" stroke-opacity="1" filling="0" d="M13.1 14 L14.3 14 C14.3 14.8 14.5 15.5 14.1 16.2 C13.9 16.6 13.3 16 13 16.3 L13 16.3 C12.9 15.2 12.7 15.1 13.1 14 L13.1 14"/><path fill="none" stroke="black" stroke-width=".3" stroke-opacity="1" filling="0" d="M14.4 14.4 L14.4 14.4 C14.2 15.4 13.9 16.3 14.2 17.4 L14.2 17.4 C14.6 16.6 15.1 15.8 15.5 15 L15.5 15 C15.7 15.2 16 15.4 16.2 15.6 L16.2 15.6 C15.5 16.5 14.5 17.7 14 18.9 C13.7 19.7 13.4 20.3 13.4 21.1 L13.4 21.1 C13.8 21 14.3 20.7 14.8 20.8 L14.8 20.8 C14.1 21.7 12.9 21 12.7 22.1 L12.7 22.1 C12.4 21.2 12.1 20.3 12 19.4 L12 19.4 C11.3 19.5 11.3 19.4 10.8 19.9 L10.5 19.9 C10.6 19.2 10.5 19.3 10.5 18.4 L10.5 18.4 C10 16.9 10 15.4 10.3 13.8 C10.6 12.2 11 10.7 11.4 9.1 L11.4 9.1 C12.1 9.4 12.7 10 13 10.6 L13 10.6 C13.6 12.1 14.4 13 14.1 14.7 L14.1 14.7 C14.1 14.6 14.2 14.5 14.2 14.4 L14.2 14.4"/><path fill="none" stroke="black" stroke-width=".3" stroke-opacity="1" filling="0" d="M13 19.4 L13 19.4 C12.8 19.8 12.7 20.1 12.5 20.4 L12.5 20.4 C12.3 20 12.1 19.7 11.8 19.3 L11.8 19.3"/><path fill="none" stroke="black" stroke-width=".3" stroke-opacity="1" filling="0" d="M14.8 20.7 L14.2 20.2 L13.2 20.7"/></svg>