<svg xmlns="http://www.w3.org/2000/svg" viewBox="0 0 24 24" height="200px" width="200px"><path fill="none" stroke="black" stroke-width=".3" stroke-opacity="1" filling="0" d="M13.9 22.8 L13.5 22.8 L13.5 18.6 L13.3 18.6 C12.7 18.7 12.1 19.1 11.8 19.7 L11.8 22.8 L11.3 22.8 L11.3 19.7 C10.7 18.7 9.9 18.7 9 18.6 L8.9 18.6 C9.2 17.6 9.7 16.7 10.3 15.9 L10.5 15.8 C11.1 16 11.7 16.5 12 17.1 L12 18.9 C12.1 19.2 12.1 19.5 12.1 19.8 L12.1 21.3 C12.9 23.1 13 20 14.3 21.2 L14.2 21.7 C14.1 22.1 14 22.5 13.9 22.8 L13.9 22.8"/></svg>