<svg xmlns="http://www.w3.org/2000/svg" viewBox="0 0 24 24" height="200px" width="200px"><path fill="none" stroke="black" stroke-width=".3" stroke-opacity="1" filling="0" d="M13.6 6.4 L13.6 6.4 C15.2 6.7 15.7 6.6 17 7.5 C18.3 8.3 19 9.7 19.2 11.2 C19.4 12.7 19 14.3 18.1 15.5 C17.2 16.7 16 17.6 14.5 18 C12.8 18.3 11 17.7 9.6 16.6 C8.3 15.5 7.4 13.9 7.4 12.1 C7.3 10.4 8 9 9.1 8.1 C10.1 7.2 11.6 6.7 13.1 6.8 L13.1 6.8 C13.2 6.7 13.4 6.5 13.6 6.4 L13.6 6.4"/><path fill="none" stroke="black" stroke-width=".3" stroke-opacity="1" filling="0" d="M13.6 7.9 L13.6 7.9 C14.5 8.1 15.6 8.3 16.1 9.2 C16.8 10.9 16.2 13.3 13.6 13.3 C11.1 13.3 10.5 10.9 11.2 9.2 C11.6 8.3 12.7 8.1 13.6 7.9 L13.6 7.9"/><path fill="none" stroke="black" stroke-width=".3" stroke-opacity="1" filling="0" d="M13.6 8 L13.6 8 C14.7 8.2 15.3 8.1 16.1 8.9 C16.9 9.8 16.9 11.5 16.3 12.9 C15.7 14.3 14.5 15.5 13 15.5 C10.9 15.5 9.8 13.9 9.9 12.3 C9.9 10.7 10.9 9 12.8 8.5 C13.2 8.4 13.3 8.2 13.6 8 L13.6 8"/><path fill="none" stroke="black" stroke-width=".3" stroke-opacity="1" filling="0" d="M13.6 8.4 L13.6 8.4 C14.5 8.6 15.8 8.8 16.2 9.7 C17.1 11.3 16 13.4 14.1 13.4 C12.1 13.4 11.6 11.3 12.3 9.8 C12.5 8.9 13 8.8 13.6 8.4 L13.6 8.4"/><path fill="none" stroke="black" stroke-width=".3" stroke-opacity="1" filling="0" d="M13.6 8.6 L13.6 8.6 C14.2 8.8 15 8.8 15.4 9.4 C16.5 10.7 15.8 13.1 14.1 13.1 C12.1 13.1 11.7 10.9 12.6 9.4 C12.9 8.9 13.3 8.9 13.6 8.6 L13.6 8.6"/><path fill="none" stroke="black" stroke-width=".3" stroke-opacity="1" filling="0" d="M13.6 9 L13.6 9 C14.2 9.2 15.1 9.3 15.4 10 C16.2 11.5 15.4 12.9 13.6 12.9 C11.5 12.9 11.5 9.8 12.9 9.1 C13.2 9 13.3 9.1 13.6 9 L13.6 9"/><path fill="none" stroke="black" stroke-width=".3" stroke-opacity="1" filling="0" d="M13.7 9.6 L13.7 9.6 C14.2 9.8 14.2 11.1 13.7 11.1 C13.3 11.1 13.3 9.9 13.7 9.6 L13.7 9.6"/></svg>