<svg xmlns="http://www.w3.org/2000/svg" viewBox="0 0 24 24" height="200px" width="200px"><path fill="none" stroke="black" stroke-width=".3" stroke-opacity="1" filling="0" d="M11.3 22.8 L11.3 22.8 C10.4 22.8 9.5 22.8 8.6 22.8 L8.6 21.4 L9.4 21.4 C9.5 21.3 9.6 21.2 9.7 21.1 L9.7 15.8 L9.7 10.4 C9.6 10.3 9.5 10.2 9.4 10.1 L8.6 10.1 L8.6 8.6 L11.3 8.6 C11.7 8.6 12.2 8.6 12.7 8.6 L12.7 10.1 L11.8 10.1 C11.7 10.2 11.6 10.3 11.5 10.4 L11.5 15.8 L11.5 21.1 C11.6 21.2 11.7 21.3 11.8 21.4 L12.7 21.4 L12.7 22.8 C12.2 22.8 11.7 22.8 11.3 22.8 L11.3 22.8"/></svg>